<mxfile host="app.diagrams.net" modified="2024-02-04T09:05:38.984Z" agent="Mozilla/5.0 (Windows NT 10.0; Win64; x64) AppleWebKit/537.36 (KHTML, like Gecko) Chrome/121.0.0.0 Safari/537.36" etag="EaIzOdZ7KBzN-XrPBq_D" version="23.1.1" type="github">
  <diagram name="第 1 页" id="j1OS1nqnNU0r_C70Ez_W">
    <mxGraphModel dx="2597" dy="499" grid="1" gridSize="10" guides="1" tooltips="1" connect="1" arrows="1" fold="1" page="1" pageScale="1" pageWidth="827" pageHeight="1169" math="0" shadow="0">
      <root>
        <mxCell id="0" />
        <mxCell id="1" parent="0" />
        <mxCell id="1rChEE7HtAv45-qk9ITN-2" value="DistributePowers（expressions, y）" style="rounded=0;whiteSpace=wrap;html=1;" vertex="1" parent="1">
          <mxGeometry x="230" y="140" width="310" height="20" as="geometry" />
        </mxCell>
        <mxCell id="1rChEE7HtAv45-qk9ITN-3" value="mul" style="rounded=0;whiteSpace=wrap;html=1;" vertex="1" parent="1">
          <mxGeometry x="-190" y="270" width="40" height="20" as="geometry" />
        </mxCell>
        <mxCell id="1rChEE7HtAv45-qk9ITN-4" value="poly(0)" style="rounded=0;whiteSpace=wrap;html=1;" vertex="1" parent="1">
          <mxGeometry x="-120" y="330" width="60" height="20" as="geometry" />
        </mxCell>
        <mxCell id="1rChEE7HtAv45-qk9ITN-5" value="add" style="rounded=0;whiteSpace=wrap;html=1;" vertex="1" parent="1">
          <mxGeometry x="-270" y="325" width="40" height="20" as="geometry" />
        </mxCell>
        <mxCell id="1rChEE7HtAv45-qk9ITN-7" value="" style="endArrow=classic;html=1;rounded=0;exitX=0.5;exitY=1;exitDx=0;exitDy=0;entryX=0.5;entryY=0;entryDx=0;entryDy=0;" edge="1" parent="1" source="1rChEE7HtAv45-qk9ITN-3" target="1rChEE7HtAv45-qk9ITN-4">
          <mxGeometry width="50" height="50" relative="1" as="geometry">
            <mxPoint x="-180" y="360" as="sourcePoint" />
            <mxPoint x="-130" y="310" as="targetPoint" />
          </mxGeometry>
        </mxCell>
        <mxCell id="1rChEE7HtAv45-qk9ITN-8" value="" style="endArrow=classic;html=1;rounded=0;exitX=0.5;exitY=1;exitDx=0;exitDy=0;entryX=0.5;entryY=0;entryDx=0;entryDy=0;" edge="1" parent="1" source="1rChEE7HtAv45-qk9ITN-3" target="1rChEE7HtAv45-qk9ITN-5">
          <mxGeometry width="50" height="50" relative="1" as="geometry">
            <mxPoint x="-160" y="300" as="sourcePoint" />
            <mxPoint x="-220" y="330" as="targetPoint" />
          </mxGeometry>
        </mxCell>
        <mxCell id="1rChEE7HtAv45-qk9ITN-9" value="add" style="rounded=0;whiteSpace=wrap;html=1;" vertex="1" parent="1">
          <mxGeometry x="-330" y="375" width="40" height="20" as="geometry" />
        </mxCell>
        <mxCell id="1rChEE7HtAv45-qk9ITN-10" value="" style="endArrow=classic;html=1;rounded=0;exitX=0.5;exitY=1;exitDx=0;exitDy=0;entryX=0.5;entryY=0;entryDx=0;entryDy=0;" edge="1" parent="1" source="1rChEE7HtAv45-qk9ITN-5" target="1rChEE7HtAv45-qk9ITN-9">
          <mxGeometry width="50" height="50" relative="1" as="geometry">
            <mxPoint x="-350" y="425" as="sourcePoint" />
            <mxPoint x="-300" y="375" as="targetPoint" />
          </mxGeometry>
        </mxCell>
        <mxCell id="1rChEE7HtAv45-qk9ITN-11" value="poly(1)" style="rounded=0;whiteSpace=wrap;html=1;" vertex="1" parent="1">
          <mxGeometry x="-370" y="445" width="40" height="20" as="geometry" />
        </mxCell>
        <mxCell id="1rChEE7HtAv45-qk9ITN-13" value="" style="endArrow=classic;html=1;rounded=0;exitX=0.5;exitY=1;exitDx=0;exitDy=0;entryX=0.5;entryY=0;entryDx=0;entryDy=0;" edge="1" parent="1" source="1rChEE7HtAv45-qk9ITN-9" target="1rChEE7HtAv45-qk9ITN-11">
          <mxGeometry width="50" height="50" relative="1" as="geometry">
            <mxPoint x="-460" y="305" as="sourcePoint" />
            <mxPoint x="-260" y="335" as="targetPoint" />
          </mxGeometry>
        </mxCell>
        <mxCell id="1rChEE7HtAv45-qk9ITN-14" value="poly(2)" style="rounded=0;whiteSpace=wrap;html=1;" vertex="1" parent="1">
          <mxGeometry x="-290" y="445" width="40" height="20" as="geometry" />
        </mxCell>
        <mxCell id="1rChEE7HtAv45-qk9ITN-15" value="" style="endArrow=classic;html=1;rounded=0;exitX=0.5;exitY=1;exitDx=0;exitDy=0;entryX=0.5;entryY=0;entryDx=0;entryDy=0;" edge="1" parent="1" source="1rChEE7HtAv45-qk9ITN-9" target="1rChEE7HtAv45-qk9ITN-14">
          <mxGeometry width="50" height="50" relative="1" as="geometry">
            <mxPoint x="-300" y="415" as="sourcePoint" />
            <mxPoint x="-390" y="455" as="targetPoint" />
          </mxGeometry>
        </mxCell>
        <mxCell id="1rChEE7HtAv45-qk9ITN-16" value="scale" style="rounded=0;whiteSpace=wrap;html=1;" vertex="1" parent="1">
          <mxGeometry x="-200" y="375" width="50" height="20" as="geometry" />
        </mxCell>
        <mxCell id="1rChEE7HtAv45-qk9ITN-18" value="" style="endArrow=classic;html=1;rounded=0;entryX=0.5;entryY=0;entryDx=0;entryDy=0;" edge="1" parent="1" target="1rChEE7HtAv45-qk9ITN-16">
          <mxGeometry width="50" height="50" relative="1" as="geometry">
            <mxPoint x="-250" y="345" as="sourcePoint" />
            <mxPoint x="-280" y="395" as="targetPoint" />
          </mxGeometry>
        </mxCell>
        <mxCell id="1rChEE7HtAv45-qk9ITN-19" value="poly(3)" style="rounded=0;whiteSpace=wrap;html=1;" vertex="1" parent="1">
          <mxGeometry x="-240" y="445" width="40" height="20" as="geometry" />
        </mxCell>
        <mxCell id="1rChEE7HtAv45-qk9ITN-21" value="scale v" style="rounded=0;whiteSpace=wrap;html=1;" vertex="1" parent="1">
          <mxGeometry x="-160" y="445" width="40" height="20" as="geometry" />
        </mxCell>
        <mxCell id="1rChEE7HtAv45-qk9ITN-22" value="" style="endArrow=classic;html=1;rounded=0;exitX=0.5;exitY=1;exitDx=0;exitDy=0;entryX=0.5;entryY=0;entryDx=0;entryDy=0;" edge="1" parent="1" source="1rChEE7HtAv45-qk9ITN-16" target="1rChEE7HtAv45-qk9ITN-19">
          <mxGeometry width="50" height="50" relative="1" as="geometry">
            <mxPoint x="-350" y="425" as="sourcePoint" />
            <mxPoint x="-290" y="465" as="targetPoint" />
          </mxGeometry>
        </mxCell>
        <mxCell id="1rChEE7HtAv45-qk9ITN-23" value="" style="endArrow=classic;html=1;rounded=0;exitX=0.5;exitY=1;exitDx=0;exitDy=0;entryX=0.5;entryY=0;entryDx=0;entryDy=0;" edge="1" parent="1" source="1rChEE7HtAv45-qk9ITN-16" target="1rChEE7HtAv45-qk9ITN-21">
          <mxGeometry width="50" height="50" relative="1" as="geometry">
            <mxPoint x="-130" y="415" as="sourcePoint" />
            <mxPoint x="-190" y="465" as="targetPoint" />
          </mxGeometry>
        </mxCell>
        <mxCell id="1rChEE7HtAv45-qk9ITN-24" value="" style="endArrow=classic;html=1;rounded=0;exitX=0.5;exitY=1;exitDx=0;exitDy=0;entryX=0.5;entryY=0;entryDx=0;entryDy=0;" edge="1" parent="1" source="1rChEE7HtAv45-qk9ITN-2" target="1rChEE7HtAv45-qk9ITN-3">
          <mxGeometry width="50" height="50" relative="1" as="geometry">
            <mxPoint x="300" y="340" as="sourcePoint" />
            <mxPoint x="350" y="290" as="targetPoint" />
          </mxGeometry>
        </mxCell>
        <mxCell id="1rChEE7HtAv45-qk9ITN-25" value="mul" style="rounded=0;whiteSpace=wrap;html=1;" vertex="1" parent="1">
          <mxGeometry x="170" y="270" width="40" height="20" as="geometry" />
        </mxCell>
        <mxCell id="1rChEE7HtAv45-qk9ITN-27" value="" style="endArrow=classic;html=1;rounded=0;entryX=0.5;entryY=0;entryDx=0;entryDy=0;" edge="1" parent="1" target="1rChEE7HtAv45-qk9ITN-25">
          <mxGeometry width="50" height="50" relative="1" as="geometry">
            <mxPoint x="390" y="160" as="sourcePoint" />
            <mxPoint x="-160" y="280" as="targetPoint" />
          </mxGeometry>
        </mxCell>
        <mxCell id="1rChEE7HtAv45-qk9ITN-28" value="add" style="rounded=0;whiteSpace=wrap;html=1;" vertex="1" parent="1">
          <mxGeometry x="80" y="330" width="40" height="20" as="geometry" />
        </mxCell>
        <mxCell id="1rChEE7HtAv45-qk9ITN-29" value="const" style="rounded=0;whiteSpace=wrap;html=1;" vertex="1" parent="1">
          <mxGeometry x="50" y="380" width="40" height="20" as="geometry" />
        </mxCell>
        <mxCell id="1rChEE7HtAv45-qk9ITN-30" value="" style="endArrow=classic;html=1;rounded=0;entryX=0.5;entryY=0;entryDx=0;entryDy=0;exitX=0.5;exitY=1;exitDx=0;exitDy=0;" edge="1" parent="1" source="1rChEE7HtAv45-qk9ITN-25" target="1rChEE7HtAv45-qk9ITN-28">
          <mxGeometry width="50" height="50" relative="1" as="geometry">
            <mxPoint x="130" y="160" as="sourcePoint" />
            <mxPoint x="210" y="260" as="targetPoint" />
          </mxGeometry>
        </mxCell>
        <mxCell id="1rChEE7HtAv45-qk9ITN-31" value="" style="endArrow=classic;html=1;rounded=0;entryX=0.5;entryY=0;entryDx=0;entryDy=0;exitX=0.5;exitY=1;exitDx=0;exitDy=0;" edge="1" parent="1" source="1rChEE7HtAv45-qk9ITN-28" target="1rChEE7HtAv45-qk9ITN-29">
          <mxGeometry width="50" height="50" relative="1" as="geometry">
            <mxPoint x="210" y="280" as="sourcePoint" />
            <mxPoint x="110" y="330" as="targetPoint" />
          </mxGeometry>
        </mxCell>
        <mxCell id="1rChEE7HtAv45-qk9ITN-32" value="scale" style="rounded=0;whiteSpace=wrap;html=1;" vertex="1" parent="1">
          <mxGeometry x="120" y="380" width="40" height="20" as="geometry" />
        </mxCell>
        <mxCell id="1rChEE7HtAv45-qk9ITN-33" value="poly(12)" style="rounded=0;whiteSpace=wrap;html=1;" vertex="1" parent="1">
          <mxGeometry x="80" y="450" width="40" height="20" as="geometry" />
        </mxCell>
        <mxCell id="1rChEE7HtAv45-qk9ITN-34" value="scale v" style="rounded=0;whiteSpace=wrap;html=1;" vertex="1" parent="1">
          <mxGeometry x="160" y="450" width="40" height="20" as="geometry" />
        </mxCell>
        <mxCell id="1rChEE7HtAv45-qk9ITN-36" value="" style="endArrow=classic;html=1;rounded=0;entryX=0.5;entryY=0;entryDx=0;entryDy=0;exitX=0.5;exitY=1;exitDx=0;exitDy=0;" edge="1" parent="1" source="1rChEE7HtAv45-qk9ITN-28" target="1rChEE7HtAv45-qk9ITN-32">
          <mxGeometry width="50" height="50" relative="1" as="geometry">
            <mxPoint x="110" y="350" as="sourcePoint" />
            <mxPoint x="40" y="400" as="targetPoint" />
          </mxGeometry>
        </mxCell>
        <mxCell id="1rChEE7HtAv45-qk9ITN-37" value="" style="endArrow=classic;html=1;rounded=0;entryX=0.5;entryY=0;entryDx=0;entryDy=0;exitX=0.5;exitY=1;exitDx=0;exitDy=0;" edge="1" parent="1" source="1rChEE7HtAv45-qk9ITN-32" target="1rChEE7HtAv45-qk9ITN-33">
          <mxGeometry width="50" height="50" relative="1" as="geometry">
            <mxPoint x="110" y="350" as="sourcePoint" />
            <mxPoint x="150" y="400" as="targetPoint" />
          </mxGeometry>
        </mxCell>
        <mxCell id="1rChEE7HtAv45-qk9ITN-38" value="" style="endArrow=classic;html=1;rounded=0;entryX=0.5;entryY=0;entryDx=0;entryDy=0;exitX=0.5;exitY=1;exitDx=0;exitDy=0;" edge="1" parent="1" source="1rChEE7HtAv45-qk9ITN-32" target="1rChEE7HtAv45-qk9ITN-34">
          <mxGeometry width="50" height="50" relative="1" as="geometry">
            <mxPoint x="150" y="420" as="sourcePoint" />
            <mxPoint x="80" y="470" as="targetPoint" />
          </mxGeometry>
        </mxCell>
        <mxCell id="1rChEE7HtAv45-qk9ITN-39" value="poly(9)" style="rounded=0;whiteSpace=wrap;html=1;" vertex="1" parent="1">
          <mxGeometry x="220" y="340" width="40" height="20" as="geometry" />
        </mxCell>
        <mxCell id="1rChEE7HtAv45-qk9ITN-40" value="" style="endArrow=classic;html=1;rounded=0;entryX=0.5;entryY=0;entryDx=0;entryDy=0;" edge="1" parent="1" target="1rChEE7HtAv45-qk9ITN-39">
          <mxGeometry width="50" height="50" relative="1" as="geometry">
            <mxPoint x="190" y="290" as="sourcePoint" />
            <mxPoint x="110" y="330" as="targetPoint" />
          </mxGeometry>
        </mxCell>
        <mxCell id="1rChEE7HtAv45-qk9ITN-41" value="mul" style="rounded=0;whiteSpace=wrap;html=1;" vertex="1" parent="1">
          <mxGeometry x="430" y="290" width="40" height="20" as="geometry" />
        </mxCell>
        <mxCell id="1rChEE7HtAv45-qk9ITN-42" value="add" style="rounded=0;whiteSpace=wrap;html=1;" vertex="1" parent="1">
          <mxGeometry x="370" y="350" width="40" height="20" as="geometry" />
        </mxCell>
        <mxCell id="1rChEE7HtAv45-qk9ITN-43" value="mul" style="rounded=0;whiteSpace=wrap;html=1;" vertex="1" parent="1">
          <mxGeometry x="310" y="400" width="40" height="20" as="geometry" />
        </mxCell>
        <mxCell id="1rChEE7HtAv45-qk9ITN-44" value="" style="endArrow=classic;html=1;rounded=0;entryX=0.5;entryY=0;entryDx=0;entryDy=0;exitX=0.5;exitY=1;exitDx=0;exitDy=0;" edge="1" parent="1" source="1rChEE7HtAv45-qk9ITN-41" target="1rChEE7HtAv45-qk9ITN-42">
          <mxGeometry width="50" height="50" relative="1" as="geometry">
            <mxPoint x="390" y="180" as="sourcePoint" />
            <mxPoint x="470" y="280" as="targetPoint" />
          </mxGeometry>
        </mxCell>
        <mxCell id="1rChEE7HtAv45-qk9ITN-45" value="" style="endArrow=classic;html=1;rounded=0;entryX=0.5;entryY=0;entryDx=0;entryDy=0;exitX=0.5;exitY=1;exitDx=0;exitDy=0;" edge="1" parent="1" source="1rChEE7HtAv45-qk9ITN-42" target="1rChEE7HtAv45-qk9ITN-43">
          <mxGeometry width="50" height="50" relative="1" as="geometry">
            <mxPoint x="470" y="300" as="sourcePoint" />
            <mxPoint x="370" y="350" as="targetPoint" />
          </mxGeometry>
        </mxCell>
        <mxCell id="1rChEE7HtAv45-qk9ITN-46" value="scale" style="rounded=0;whiteSpace=wrap;html=1;" vertex="1" parent="1">
          <mxGeometry x="420" y="400" width="40" height="20" as="geometry" />
        </mxCell>
        <mxCell id="1rChEE7HtAv45-qk9ITN-47" value="poly(15)" style="rounded=0;whiteSpace=wrap;html=1;" vertex="1" parent="1">
          <mxGeometry x="395" y="460" width="40" height="20" as="geometry" />
        </mxCell>
        <mxCell id="1rChEE7HtAv45-qk9ITN-48" value="scale v" style="rounded=0;whiteSpace=wrap;html=1;" vertex="1" parent="1">
          <mxGeometry x="470" y="460" width="40" height="20" as="geometry" />
        </mxCell>
        <mxCell id="1rChEE7HtAv45-qk9ITN-49" value="" style="endArrow=classic;html=1;rounded=0;entryX=0.5;entryY=0;entryDx=0;entryDy=0;exitX=0.5;exitY=1;exitDx=0;exitDy=0;" edge="1" parent="1" source="1rChEE7HtAv45-qk9ITN-42" target="1rChEE7HtAv45-qk9ITN-46">
          <mxGeometry width="50" height="50" relative="1" as="geometry">
            <mxPoint x="370" y="370" as="sourcePoint" />
            <mxPoint x="300" y="420" as="targetPoint" />
          </mxGeometry>
        </mxCell>
        <mxCell id="1rChEE7HtAv45-qk9ITN-50" value="" style="endArrow=classic;html=1;rounded=0;entryX=0.5;entryY=0;entryDx=0;entryDy=0;exitX=0.5;exitY=1;exitDx=0;exitDy=0;" edge="1" parent="1" source="1rChEE7HtAv45-qk9ITN-46" target="1rChEE7HtAv45-qk9ITN-47">
          <mxGeometry width="50" height="50" relative="1" as="geometry">
            <mxPoint x="420" y="370" as="sourcePoint" />
            <mxPoint x="460" y="420" as="targetPoint" />
          </mxGeometry>
        </mxCell>
        <mxCell id="1rChEE7HtAv45-qk9ITN-51" value="" style="endArrow=classic;html=1;rounded=0;entryX=0.5;entryY=0;entryDx=0;entryDy=0;exitX=0.5;exitY=1;exitDx=0;exitDy=0;" edge="1" parent="1" source="1rChEE7HtAv45-qk9ITN-46" target="1rChEE7HtAv45-qk9ITN-48">
          <mxGeometry width="50" height="50" relative="1" as="geometry">
            <mxPoint x="460" y="440" as="sourcePoint" />
            <mxPoint x="390" y="490" as="targetPoint" />
          </mxGeometry>
        </mxCell>
        <mxCell id="1rChEE7HtAv45-qk9ITN-52" value="poly(11)" style="rounded=0;whiteSpace=wrap;html=1;" vertex="1" parent="1">
          <mxGeometry x="480" y="360" width="40" height="20" as="geometry" />
        </mxCell>
        <mxCell id="1rChEE7HtAv45-qk9ITN-53" value="" style="endArrow=classic;html=1;rounded=0;entryX=0.5;entryY=0;entryDx=0;entryDy=0;" edge="1" parent="1" target="1rChEE7HtAv45-qk9ITN-52">
          <mxGeometry width="50" height="50" relative="1" as="geometry">
            <mxPoint x="450" y="310" as="sourcePoint" />
            <mxPoint x="370" y="350" as="targetPoint" />
          </mxGeometry>
        </mxCell>
        <mxCell id="1rChEE7HtAv45-qk9ITN-54" value="" style="endArrow=classic;html=1;rounded=0;entryX=0.5;entryY=0;entryDx=0;entryDy=0;exitX=0.516;exitY=0.943;exitDx=0;exitDy=0;exitPerimeter=0;" edge="1" parent="1" source="1rChEE7HtAv45-qk9ITN-2" target="1rChEE7HtAv45-qk9ITN-41">
          <mxGeometry width="50" height="50" relative="1" as="geometry">
            <mxPoint x="400" y="170" as="sourcePoint" />
            <mxPoint x="200" y="280" as="targetPoint" />
          </mxGeometry>
        </mxCell>
        <mxCell id="1rChEE7HtAv45-qk9ITN-55" value="poly(15)" style="rounded=0;whiteSpace=wrap;html=1;" vertex="1" parent="1">
          <mxGeometry x="270" y="460" width="40" height="20" as="geometry" />
        </mxCell>
        <mxCell id="1rChEE7HtAv45-qk9ITN-57" value="" style="endArrow=classic;html=1;rounded=0;entryX=0.5;entryY=0;entryDx=0;entryDy=0;" edge="1" parent="1" target="1rChEE7HtAv45-qk9ITN-55">
          <mxGeometry width="50" height="50" relative="1" as="geometry">
            <mxPoint x="330" y="420" as="sourcePoint" />
            <mxPoint x="340" y="410" as="targetPoint" />
          </mxGeometry>
        </mxCell>
        <mxCell id="1rChEE7HtAv45-qk9ITN-58" value="poly(15)" style="rounded=0;whiteSpace=wrap;html=1;" vertex="1" parent="1">
          <mxGeometry x="340" y="460" width="40" height="20" as="geometry" />
        </mxCell>
        <mxCell id="1rChEE7HtAv45-qk9ITN-59" value="" style="endArrow=classic;html=1;rounded=0;entryX=0.5;entryY=0;entryDx=0;entryDy=0;exitX=0.5;exitY=1;exitDx=0;exitDy=0;" edge="1" parent="1" source="1rChEE7HtAv45-qk9ITN-43" target="1rChEE7HtAv45-qk9ITN-58">
          <mxGeometry width="50" height="50" relative="1" as="geometry">
            <mxPoint x="340" y="430" as="sourcePoint" />
            <mxPoint x="300" y="470" as="targetPoint" />
          </mxGeometry>
        </mxCell>
        <mxCell id="1rChEE7HtAv45-qk9ITN-60" value="mul" style="rounded=0;whiteSpace=wrap;html=1;" vertex="1" parent="1">
          <mxGeometry x="700" y="295" width="40" height="20" as="geometry" />
        </mxCell>
        <mxCell id="1rChEE7HtAv45-qk9ITN-61" value="add" style="rounded=0;whiteSpace=wrap;html=1;" vertex="1" parent="1">
          <mxGeometry x="640" y="355" width="40" height="20" as="geometry" />
        </mxCell>
        <mxCell id="1rChEE7HtAv45-qk9ITN-62" value="poly(13)" style="rounded=0;whiteSpace=wrap;html=1;" vertex="1" parent="1">
          <mxGeometry x="580" y="405" width="40" height="20" as="geometry" />
        </mxCell>
        <mxCell id="1rChEE7HtAv45-qk9ITN-63" value="" style="endArrow=classic;html=1;rounded=0;entryX=0.5;entryY=0;entryDx=0;entryDy=0;exitX=0.5;exitY=1;exitDx=0;exitDy=0;" edge="1" parent="1" source="1rChEE7HtAv45-qk9ITN-60" target="1rChEE7HtAv45-qk9ITN-61">
          <mxGeometry width="50" height="50" relative="1" as="geometry">
            <mxPoint x="660" y="185" as="sourcePoint" />
            <mxPoint x="740" y="285" as="targetPoint" />
          </mxGeometry>
        </mxCell>
        <mxCell id="1rChEE7HtAv45-qk9ITN-64" value="" style="endArrow=classic;html=1;rounded=0;entryX=0.5;entryY=0;entryDx=0;entryDy=0;exitX=0.5;exitY=1;exitDx=0;exitDy=0;" edge="1" parent="1" source="1rChEE7HtAv45-qk9ITN-61" target="1rChEE7HtAv45-qk9ITN-62">
          <mxGeometry width="50" height="50" relative="1" as="geometry">
            <mxPoint x="740" y="305" as="sourcePoint" />
            <mxPoint x="640" y="355" as="targetPoint" />
          </mxGeometry>
        </mxCell>
        <mxCell id="1rChEE7HtAv45-qk9ITN-65" value="scale" style="rounded=0;whiteSpace=wrap;html=1;" vertex="1" parent="1">
          <mxGeometry x="690" y="405" width="40" height="20" as="geometry" />
        </mxCell>
        <mxCell id="1rChEE7HtAv45-qk9ITN-66" value="poly(12)" style="rounded=0;whiteSpace=wrap;html=1;" vertex="1" parent="1">
          <mxGeometry x="665" y="465" width="40" height="20" as="geometry" />
        </mxCell>
        <mxCell id="1rChEE7HtAv45-qk9ITN-67" value="scale v" style="rounded=0;whiteSpace=wrap;html=1;" vertex="1" parent="1">
          <mxGeometry x="740" y="465" width="40" height="20" as="geometry" />
        </mxCell>
        <mxCell id="1rChEE7HtAv45-qk9ITN-68" value="" style="endArrow=classic;html=1;rounded=0;entryX=0.5;entryY=0;entryDx=0;entryDy=0;exitX=0.5;exitY=1;exitDx=0;exitDy=0;" edge="1" parent="1" source="1rChEE7HtAv45-qk9ITN-61" target="1rChEE7HtAv45-qk9ITN-65">
          <mxGeometry width="50" height="50" relative="1" as="geometry">
            <mxPoint x="640" y="375" as="sourcePoint" />
            <mxPoint x="570" y="425" as="targetPoint" />
          </mxGeometry>
        </mxCell>
        <mxCell id="1rChEE7HtAv45-qk9ITN-69" value="" style="endArrow=classic;html=1;rounded=0;entryX=0.5;entryY=0;entryDx=0;entryDy=0;exitX=0.5;exitY=1;exitDx=0;exitDy=0;" edge="1" parent="1" source="1rChEE7HtAv45-qk9ITN-65" target="1rChEE7HtAv45-qk9ITN-66">
          <mxGeometry width="50" height="50" relative="1" as="geometry">
            <mxPoint x="690" y="375" as="sourcePoint" />
            <mxPoint x="730" y="425" as="targetPoint" />
          </mxGeometry>
        </mxCell>
        <mxCell id="1rChEE7HtAv45-qk9ITN-70" value="" style="endArrow=classic;html=1;rounded=0;entryX=0.5;entryY=0;entryDx=0;entryDy=0;exitX=0.5;exitY=1;exitDx=0;exitDy=0;" edge="1" parent="1" source="1rChEE7HtAv45-qk9ITN-65" target="1rChEE7HtAv45-qk9ITN-67">
          <mxGeometry width="50" height="50" relative="1" as="geometry">
            <mxPoint x="730" y="445" as="sourcePoint" />
            <mxPoint x="660" y="495" as="targetPoint" />
          </mxGeometry>
        </mxCell>
        <mxCell id="1rChEE7HtAv45-qk9ITN-71" value="poly(9)" style="rounded=0;whiteSpace=wrap;html=1;" vertex="1" parent="1">
          <mxGeometry x="750" y="365" width="40" height="20" as="geometry" />
        </mxCell>
        <mxCell id="1rChEE7HtAv45-qk9ITN-72" value="" style="endArrow=classic;html=1;rounded=0;entryX=0.5;entryY=0;entryDx=0;entryDy=0;" edge="1" parent="1" target="1rChEE7HtAv45-qk9ITN-71">
          <mxGeometry width="50" height="50" relative="1" as="geometry">
            <mxPoint x="720" y="315" as="sourcePoint" />
            <mxPoint x="640" y="355" as="targetPoint" />
          </mxGeometry>
        </mxCell>
        <mxCell id="1rChEE7HtAv45-qk9ITN-77" value="" style="endArrow=classic;html=1;rounded=0;entryX=0.5;entryY=0;entryDx=0;entryDy=0;" edge="1" parent="1" target="1rChEE7HtAv45-qk9ITN-60">
          <mxGeometry width="50" height="50" relative="1" as="geometry">
            <mxPoint x="390" y="160" as="sourcePoint" />
            <mxPoint x="460" y="300" as="targetPoint" />
          </mxGeometry>
        </mxCell>
        <mxCell id="1rChEE7HtAv45-qk9ITN-78" value="mul" style="rounded=0;whiteSpace=wrap;html=1;" vertex="1" parent="1">
          <mxGeometry x="970" y="295" width="40" height="20" as="geometry" />
        </mxCell>
        <mxCell id="1rChEE7HtAv45-qk9ITN-79" value="add" style="rounded=0;whiteSpace=wrap;html=1;" vertex="1" parent="1">
          <mxGeometry x="910" y="355" width="40" height="20" as="geometry" />
        </mxCell>
        <mxCell id="1rChEE7HtAv45-qk9ITN-80" value="poly(14)" style="rounded=0;whiteSpace=wrap;html=1;" vertex="1" parent="1">
          <mxGeometry x="850" y="405" width="40" height="20" as="geometry" />
        </mxCell>
        <mxCell id="1rChEE7HtAv45-qk9ITN-81" value="" style="endArrow=classic;html=1;rounded=0;entryX=0.5;entryY=0;entryDx=0;entryDy=0;exitX=0.5;exitY=1;exitDx=0;exitDy=0;" edge="1" parent="1" source="1rChEE7HtAv45-qk9ITN-78" target="1rChEE7HtAv45-qk9ITN-79">
          <mxGeometry width="50" height="50" relative="1" as="geometry">
            <mxPoint x="930" y="185" as="sourcePoint" />
            <mxPoint x="1010" y="285" as="targetPoint" />
          </mxGeometry>
        </mxCell>
        <mxCell id="1rChEE7HtAv45-qk9ITN-82" value="" style="endArrow=classic;html=1;rounded=0;entryX=0.5;entryY=0;entryDx=0;entryDy=0;exitX=0.5;exitY=1;exitDx=0;exitDy=0;" edge="1" parent="1" source="1rChEE7HtAv45-qk9ITN-79" target="1rChEE7HtAv45-qk9ITN-80">
          <mxGeometry width="50" height="50" relative="1" as="geometry">
            <mxPoint x="1010" y="305" as="sourcePoint" />
            <mxPoint x="910" y="355" as="targetPoint" />
          </mxGeometry>
        </mxCell>
        <mxCell id="1rChEE7HtAv45-qk9ITN-83" value="scale" style="rounded=0;whiteSpace=wrap;html=1;" vertex="1" parent="1">
          <mxGeometry x="960" y="405" width="40" height="20" as="geometry" />
        </mxCell>
        <mxCell id="1rChEE7HtAv45-qk9ITN-84" value="poly(13)" style="rounded=0;whiteSpace=wrap;html=1;" vertex="1" parent="1">
          <mxGeometry x="935" y="465" width="40" height="20" as="geometry" />
        </mxCell>
        <mxCell id="1rChEE7HtAv45-qk9ITN-85" value="scale v" style="rounded=0;whiteSpace=wrap;html=1;" vertex="1" parent="1">
          <mxGeometry x="1010" y="465" width="40" height="20" as="geometry" />
        </mxCell>
        <mxCell id="1rChEE7HtAv45-qk9ITN-86" value="" style="endArrow=classic;html=1;rounded=0;entryX=0.5;entryY=0;entryDx=0;entryDy=0;exitX=0.5;exitY=1;exitDx=0;exitDy=0;" edge="1" parent="1" source="1rChEE7HtAv45-qk9ITN-79" target="1rChEE7HtAv45-qk9ITN-83">
          <mxGeometry width="50" height="50" relative="1" as="geometry">
            <mxPoint x="910" y="375" as="sourcePoint" />
            <mxPoint x="840" y="425" as="targetPoint" />
          </mxGeometry>
        </mxCell>
        <mxCell id="1rChEE7HtAv45-qk9ITN-87" value="" style="endArrow=classic;html=1;rounded=0;entryX=0.5;entryY=0;entryDx=0;entryDy=0;exitX=0.5;exitY=1;exitDx=0;exitDy=0;" edge="1" parent="1" source="1rChEE7HtAv45-qk9ITN-83" target="1rChEE7HtAv45-qk9ITN-84">
          <mxGeometry width="50" height="50" relative="1" as="geometry">
            <mxPoint x="960" y="375" as="sourcePoint" />
            <mxPoint x="1000" y="425" as="targetPoint" />
          </mxGeometry>
        </mxCell>
        <mxCell id="1rChEE7HtAv45-qk9ITN-88" value="" style="endArrow=classic;html=1;rounded=0;entryX=0.5;entryY=0;entryDx=0;entryDy=0;exitX=0.5;exitY=1;exitDx=0;exitDy=0;" edge="1" parent="1" source="1rChEE7HtAv45-qk9ITN-83" target="1rChEE7HtAv45-qk9ITN-85">
          <mxGeometry width="50" height="50" relative="1" as="geometry">
            <mxPoint x="1000" y="445" as="sourcePoint" />
            <mxPoint x="930" y="495" as="targetPoint" />
          </mxGeometry>
        </mxCell>
        <mxCell id="1rChEE7HtAv45-qk9ITN-89" value="poly(9)" style="rounded=0;whiteSpace=wrap;html=1;" vertex="1" parent="1">
          <mxGeometry x="1020" y="365" width="40" height="20" as="geometry" />
        </mxCell>
        <mxCell id="1rChEE7HtAv45-qk9ITN-90" value="" style="endArrow=classic;html=1;rounded=0;entryX=0.5;entryY=0;entryDx=0;entryDy=0;" edge="1" parent="1" target="1rChEE7HtAv45-qk9ITN-89">
          <mxGeometry width="50" height="50" relative="1" as="geometry">
            <mxPoint x="990" y="315" as="sourcePoint" />
            <mxPoint x="910" y="355" as="targetPoint" />
          </mxGeometry>
        </mxCell>
        <mxCell id="1rChEE7HtAv45-qk9ITN-95" value="" style="endArrow=classic;html=1;rounded=0;entryX=0.5;entryY=0;entryDx=0;entryDy=0;exitX=0.5;exitY=1;exitDx=0;exitDy=0;" edge="1" parent="1" source="1rChEE7HtAv45-qk9ITN-2" target="1rChEE7HtAv45-qk9ITN-78">
          <mxGeometry width="50" height="50" relative="1" as="geometry">
            <mxPoint x="400" y="170" as="sourcePoint" />
            <mxPoint x="730" y="305" as="targetPoint" />
          </mxGeometry>
        </mxCell>
        <mxCell id="1rChEE7HtAv45-qk9ITN-96" value="&lt;div style=&quot;background-color: rgb(255, 255, 255); font-family: &amp;quot;Droid Sans Mono&amp;quot;, &amp;quot;monospace&amp;quot;, monospace; font-size: 14px; line-height: 19px;&quot;&gt;&lt;div style=&quot;line-height: 19px;&quot;&gt;16个约束多项式&lt;/div&gt;&lt;div style=&quot;line-height: 19px;&quot;&gt;&lt;br&gt;&lt;/div&gt;&lt;div style=&quot;line-height: 19px;&quot;&gt;1 X fixed_cosets&lt;/div&gt;&lt;div style=&quot;line-height: 19px;&quot;&gt;3 X advice_cosets&lt;/div&gt;&lt;div style=&quot;line-height: 19px;&quot;&gt;1 X instance_cosets&lt;/div&gt;&lt;div style=&quot;line-height: 19px;&quot;&gt;4 X permutation_cosets&lt;/div&gt;&lt;div style=&quot;line-height: 19px;&quot;&gt;1 X L&lt;i&gt;0&lt;/i&gt;&lt;/div&gt;&lt;div style=&quot;line-height: 19px;&quot;&gt;1 X L&lt;i&gt;blind&lt;/i&gt;&lt;/div&gt;&lt;div style=&quot;line-height: 19px;&quot;&gt;1 X L&lt;i&gt;last&lt;/i&gt;&lt;/div&gt;&lt;div style=&quot;line-height: 19px;&quot;&gt;&lt;i&gt;4 X permutation&lt;/i&gt;&lt;/div&gt;&lt;/div&gt;" style="rounded=0;whiteSpace=wrap;html=1;align=left;" vertex="1" parent="1">
          <mxGeometry x="-740" y="50" width="190" height="210" as="geometry" />
        </mxCell>
        <mxCell id="1rChEE7HtAv45-qk9ITN-99" value="&lt;div style=&quot;background-color: rgb(255, 255, 255); font-family: &amp;quot;Droid Sans Mono&amp;quot;, &amp;quot;monospace&amp;quot;, monospace; font-size: 14px; line-height: 19px;&quot;&gt;&lt;div style=&quot;line-height: 19px;&quot;&gt;10个expressions&lt;/div&gt;&lt;/div&gt;" style="rounded=0;whiteSpace=wrap;html=1;align=center;" vertex="1" parent="1">
          <mxGeometry x="-970" y="340" width="540" height="30" as="geometry" />
        </mxCell>
        <mxCell id="1rChEE7HtAv45-qk9ITN-100" value="&lt;div style=&quot;background-color: rgb(255, 255, 255); font-family: &amp;quot;Droid Sans Mono&amp;quot;, &amp;quot;monospace&amp;quot;, monospace; font-size: 14px; line-height: 19px;&quot;&gt;&lt;div style=&quot;line-height: 19px;&quot;&gt;1 X&amp;nbsp;&lt;i&gt;&lt;b&gt;l_0(X) * (1 - z_0(X)) = 0&lt;/b&gt;&lt;/i&gt;&lt;/div&gt;&lt;div style=&quot;line-height: 19px;&quot;&gt;1 X&amp;nbsp;&lt;i&gt;&lt;b&gt;l_last(X) * (z_l(X)^2 - z_l(X)) = 0&lt;/b&gt;&lt;/i&gt;&lt;/div&gt;&lt;div style=&quot;line-height: 19px;&quot;&gt;3 X&amp;nbsp;&lt;b&gt;&lt;i&gt;l_0(X) * (z_i(X) - z_{i-1}(\omega^(last) X)) = 0&lt;/i&gt;&lt;/b&gt;&lt;/div&gt;&lt;div style=&quot;line-height: 19px;&quot;&gt;4 X&amp;nbsp;&lt;b&gt;&lt;i&gt;(1-(l_last(X)+l_blind(X)))*(z_i(ωX)prod_j(p(X) +βs_j(X)+γ)-z_i(X)prod_j(p(X)+δ^jβX+γ)&lt;/i&gt;&lt;/b&gt;&lt;/div&gt;&lt;div style=&quot;line-height: 19px;&quot;&gt;1 X&amp;nbsp;&lt;i&gt;&lt;b&gt;custom gate&lt;/b&gt;&lt;/i&gt;&lt;br&gt;&lt;/div&gt;&lt;/div&gt;" style="rounded=0;whiteSpace=wrap;html=1;align=left;" vertex="1" parent="1">
          <mxGeometry x="-890" y="370" width="460" height="220" as="geometry" />
        </mxCell>
        <mxCell id="1rChEE7HtAv45-qk9ITN-101" value="&lt;div style=&quot;background-color: rgb(255, 255, 255); font-family: &amp;quot;Droid Sans Mono&amp;quot;, &amp;quot;monospace&amp;quot;, monospace; font-size: 14px; line-height: 19px;&quot;&gt;&lt;div style=&quot;line-height: 19px;&quot;&gt;permutation&lt;/div&gt;&lt;/div&gt;" style="rounded=0;whiteSpace=wrap;html=1;align=left;" vertex="1" parent="1">
          <mxGeometry x="-970" y="370" width="80" height="220" as="geometry" />
        </mxCell>
      </root>
    </mxGraphModel>
  </diagram>
</mxfile>
